<svg width="24" height="24" viewBox="0 0 24 24" fill="none" xmlns="http://www.w3.org/2000/svg">
<path d="M12.0001 0C6.92094 0 2.78882 4.1322 2.78882 9.21123C2.78882 11.2403 3.43593 13.1648 4.66009 14.7767C5.7594 16.2243 7.28732 17.3293 8.99609 17.9205L11.2154 23.4687C11.3438 23.7896 11.6545 23.9999 12.0001 23.9999C12.3456 23.9999 12.6563 23.7896 12.7847 23.4687L15.004 17.9205C16.7128 17.3293 18.2407 16.2243 19.34 14.7767C20.5642 13.1648 21.2113 11.2403 21.2113 9.21123C21.2113 4.1322 17.0792 0 12.0001 0ZM12.0001 5.87329C13.8406 5.87329 15.3381 7.37067 15.3381 9.21131C15.3381 11.0519 13.8407 12.5494 12.0001 12.5494C10.1595 12.5494 8.66203 11.052 8.66203 9.21131C8.66203 7.37067 10.1595 5.87329 12.0001 5.87329Z" fill="#0000C8"/>
</svg>
