<svg width="288" height="288" viewBox="0 0 288 288" fill="none" xmlns="http://www.w3.org/2000/svg">
<path d="M153.435 67.104C155.244 67.3056 157.052 67.5302 158.861 67.6973C162.795 68.0544 166.729 68.377 170.663 68.7226C170.79 68.7341 170.911 68.7859 171.176 68.8493C170.916 70.0013 170.675 71.1475 170.392 72.2765C168.791 78.6182 166.579 84.7238 163.152 90.3283C160.75 94.2566 157.87 97.753 153.988 100.333C149.869 103.069 145.359 103.985 140.486 103.236C133.246 102.125 128.039 97.9258 123.869 92.2118C120.799 88.007 118.621 83.3299 116.847 78.457C116.796 78.313 116.778 78.1517 116.732 77.9501C120.96 77.616 125.153 77.2819 129.341 76.9594C132.094 76.7462 134.847 76.5619 137.601 76.3258C138.228 76.2739 138.482 76.4179 138.643 77.0688C140.193 83.3242 141.788 89.5622 143.372 95.8118C143.401 95.9386 143.401 96.0826 143.459 96.1862C143.58 96.3878 143.741 96.5664 143.885 96.7565C144.058 96.5606 144.323 96.3936 144.386 96.169C145.077 93.8016 145.74 91.4227 146.408 89.0438C148.383 82.0397 150.353 75.0355 152.323 68.0314C152.41 67.7318 152.421 67.4093 152.473 67.104C152.796 67.104 153.118 67.104 153.435 67.104Z" fill="white"/>
<path d="M230.158 180.426C229.691 181.469 229.346 182.592 228.724 183.525C228.084 184.487 227.295 185.466 226.345 186.088C224.772 187.119 223.067 186.808 221.576 185.754C220.026 184.66 219.179 183.059 218.5 181.135C222.463 180.829 226.31 180.53 230.158 180.23V180.42V180.426Z" fill="white"/>
<path d="M171.187 154.207C163.872 154.777 156.712 155.336 149.432 155.9C148.971 154.103 148.516 152.312 148.061 150.526C146.845 145.745 145.642 140.959 144.415 136.178C144.346 135.907 144.115 135.677 143.96 135.429C143.77 135.683 143.487 135.907 143.407 136.195C140.769 145.475 138.154 154.754 135.533 164.039C135.446 164.344 135.348 164.644 135.233 165.018C129.07 164.477 122.941 163.941 116.68 163.394C116.87 162.518 117.032 161.689 117.227 160.871C119.076 153.21 121.743 145.895 126.323 139.392C128.788 135.89 131.731 132.889 135.562 130.833C139.939 128.483 144.541 128.189 149.288 129.306C154.138 130.452 158.066 133.125 161.384 136.765C165.963 141.788 168.837 147.767 171.199 154.212L171.187 154.207Z" fill="white"/>
<path d="M105.811 143.343C105.241 136.011 104.682 128.822 104.118 121.582C108.098 120.574 112.009 119.583 115.92 118.593C118.466 117.948 121.023 117.314 123.564 116.646C123.921 116.554 124.237 116.289 124.572 116.104C124.226 115.891 123.903 115.58 123.523 115.476C114.365 112.873 105.201 110.292 96.0307 107.724C95.3165 107.522 94.9709 107.292 95.0573 106.439C95.6102 100.691 96.0998 94.9306 96.6125 89.1763C96.6125 89.113 96.6528 89.0554 96.7219 88.8538C97.7472 89.0726 98.8013 89.257 99.8381 89.5162C106.307 91.152 112.55 93.3696 118.253 96.889C122.849 99.7286 126.864 103.167 129.381 108.081C131.564 112.343 131.795 116.801 130.717 121.375C129.208 127.78 125.194 132.422 120.015 136.178C115.724 139.288 110.966 141.506 105.811 143.338V143.343Z" fill="white"/>
<path d="M182.045 88.9056C182.609 96.1402 183.162 103.317 183.727 110.58C180.801 111.318 177.949 112.044 175.104 112.764C171.435 113.691 167.766 114.612 164.108 115.563C163.797 115.644 163.538 115.937 163.261 116.133C163.538 116.306 163.797 116.548 164.102 116.634C173.261 119.232 182.425 121.824 191.595 124.37C192.534 124.629 192.862 124.986 192.764 125.994C192.217 131.616 191.739 137.244 191.238 142.871C191.226 142.998 191.192 143.119 191.134 143.401C188.905 142.825 186.699 142.318 184.527 141.684C178.364 139.887 172.489 137.439 167.224 133.701C163.676 131.184 160.629 128.2 158.579 124.289C156.591 120.499 156.136 116.502 156.822 112.326C157.841 106.105 161.234 101.336 165.986 97.4189C170.629 93.6 175.968 91.0483 181.573 88.9862C181.682 88.9459 181.809 88.9517 182.051 88.9171L182.045 88.9056Z" fill="white"/>
<path d="M135.562 190.938C135.441 186.71 135.314 182.454 135.187 178.07C138.384 177.817 141.529 177.564 144.76 177.304C144.783 177.754 144.818 178.065 144.818 178.376C144.708 191.537 144.593 204.705 144.478 217.866C144.467 219.277 144.461 219.254 143.067 219.341C141.402 219.444 139.738 219.56 138.073 219.732C137.341 219.813 137.059 219.542 136.904 218.857C136.65 217.716 136.31 216.599 135.965 215.326C135.763 215.556 135.671 215.637 135.613 215.735C133.707 219.277 130.614 220.637 126.743 220.51C122.262 220.36 119.128 218.056 117.366 214.088C114.826 208.362 114.889 202.533 117.625 196.871C119.837 192.298 124.704 189.717 129.969 190.155C131.783 190.305 133.58 190.65 135.562 190.927V190.938ZM135.544 203.391C135.544 202.654 135.562 201.917 135.544 201.18C135.475 198.933 134.116 197.153 132.025 196.543C129.923 195.932 127.509 196.756 126.3 198.495C124.122 201.629 124.036 208.558 126.144 211.755C127.227 213.402 128.713 214.214 130.712 213.967C132.584 213.736 133.799 212.671 134.49 210.96C135.481 208.529 135.533 205.96 135.55 203.397L135.544 203.391Z" fill="white"/>
<path d="M177.425 219.295C175.237 219.444 173.123 219.565 171.014 219.744C170.415 219.796 170.243 219.514 170.116 219.024C169.805 217.832 169.448 216.645 169.056 215.251C168.048 217.175 166.896 218.644 165.139 219.537C160.416 221.927 154.287 220.055 151.356 215.315C149.167 211.766 148.712 207.861 149.121 203.818C149.484 200.172 150.791 196.9 153.435 194.279C156.735 191.007 160.837 189.936 165.347 190.143C169.24 190.316 173.048 191.053 176.786 192.154C177.316 192.309 177.494 192.54 177.494 193.081C177.477 201.623 177.483 210.165 177.483 218.707C177.483 218.863 177.46 219.018 177.437 219.295H177.425ZM168.722 202.239C168.664 202.239 168.613 202.228 168.555 202.222C168.555 200.776 168.526 199.336 168.566 197.891C168.584 197.286 168.371 196.975 167.812 196.744C164.897 195.558 161.286 196.687 159.581 199.336C158.296 201.335 157.962 203.558 157.985 205.862C158.003 207.832 158.221 209.768 159.201 211.53C160.71 214.249 164.529 214.957 166.453 212.723C167.247 211.801 167.812 210.505 168.025 209.295C168.428 206.974 168.509 204.589 168.722 202.234V202.239Z" fill="white"/>
<path d="M183.94 191.583C186.388 191.382 188.715 191.197 191.123 191.002C191.555 192.545 191.975 194.031 192.43 195.661C192.712 195.27 192.902 195.022 193.081 194.763C196.906 189.118 205.148 189.233 208.996 192.113C211.478 193.968 212.757 196.589 212.924 199.544C213.276 205.955 213.356 212.377 213.54 218.794C213.54 218.886 213.5 218.972 213.448 219.174C210.344 219.387 207.216 219.606 203.95 219.836C203.95 219.421 203.944 219.082 203.95 218.742C204.06 214.088 204.198 209.434 204.267 204.78C204.284 203.57 204.227 202.332 203.996 201.145C203.518 198.714 202.159 197.418 199.976 197.084C197.712 196.739 195.437 197.793 194.291 199.705C192.977 201.894 192.816 204.324 192.81 206.772C192.799 210.499 192.879 214.22 192.92 217.947C192.92 218.362 192.92 218.771 192.92 219.289C189.798 219.473 186.739 219.652 183.531 219.836C183.663 210.413 183.796 201.059 183.934 191.583H183.94Z" fill="white"/>
<path d="M102.079 191.664C105.206 191.399 108.334 191.14 111.623 190.863C111.491 200.344 111.364 209.768 111.231 219.283C108.852 219.468 106.566 219.646 104.193 219.836C103.778 218.356 103.375 216.922 102.92 215.292C102.557 215.85 102.303 216.265 102.015 216.657C99.5731 219.986 96.1459 220.954 92.2406 220.579C85.6339 219.946 83.2089 215.078 83.0765 210.436C82.9037 204.463 82.7942 198.49 82.6617 192.516C82.6502 192.09 82.6041 191.681 83.2377 191.641C86.1235 191.457 89.0035 191.244 91.8835 191.042C91.9757 191.036 92.0678 191.071 92.2636 191.111C92.2636 191.508 92.2694 191.912 92.2636 192.321C92.1484 197.361 92.016 202.401 91.9238 207.446C91.9065 208.374 91.9699 209.313 92.1312 210.223C92.4307 211.962 93.2141 213.42 95.0573 213.921C96.9753 214.445 98.6861 213.972 100.08 212.538C101.439 211.139 102.148 209.376 102.182 207.492C102.257 203.61 102.125 199.728 102.084 195.846C102.073 194.498 102.084 193.15 102.084 191.664H102.079Z" fill="white"/>
<path d="M58.0608 217.872C58.6483 215.775 59.2185 213.748 59.76 211.818C61.6435 212.383 63.4464 213.057 65.3126 213.437C66.407 213.656 67.6224 213.552 68.7341 213.339C70.3757 213.022 70.9459 211.467 69.8515 210.194C69.0739 209.295 68.0256 208.61 67.0233 207.924C65.0419 206.571 62.8934 205.436 61.0329 203.933C58.6368 201.992 57.6979 199.325 58.4352 196.26C59.1955 193.098 61.4419 191.301 64.4429 190.512C68.976 189.32 73.3248 190.224 77.6563 191.992C77.1034 193.928 76.5619 195.817 76.0377 197.643C74.3213 197.182 72.7085 196.606 71.0496 196.364C69.9206 196.197 68.6765 196.335 67.5648 196.641C66.2573 196.998 66.0384 198.369 67.0867 199.256C67.8355 199.889 68.7168 200.373 69.5693 200.88C71.5737 202.078 73.728 203.075 75.5712 204.48C78.5491 206.738 79.6147 209.9 78.7392 213.546C77.8925 217.094 75.3638 219.047 71.9597 219.911C67.0809 221.149 62.519 220.095 58.0608 217.872Z" fill="white"/>
<path d="M219.064 191.491C222.417 191.284 225.636 191.088 228.862 190.892V219.156C225.809 219.381 222.854 219.606 219.738 219.836C219.514 210.378 219.289 200.995 219.064 191.485V191.491Z" fill="white"/>
</svg>
